<?xml version="1.0" encoding="UTF-8" standalone="no"?>
<!DOCTYPE svg PUBLIC "-//W3C//DTD SVG 1.1//EN"
 "http://www.w3.org/Graphics/SVG/1.1/DTD/svg11.dtd">
<!-- Generated by graphviz version 3.0.0 (20220226.1711)
 -->
<!-- Title: dependencies Pages: 1 -->
<svg width="1230pt" height="174pt"
 viewBox="0.00 0.00 1230.00 173.80" xmlns="http://www.w3.org/2000/svg" xmlns:xlink="http://www.w3.org/1999/xlink">
<g id="graph0" class="graph" transform="scale(1 1) rotate(0) translate(4 169.8)">
<title>dependencies</title>
<polygon fill="white" stroke="transparent" points="-4,4 -4,-169.8 1226,-169.8 1226,4 -4,4"/>
<text text-anchor="middle" x="611" y="-8.2" font-family="sans-serif" font-size="14.00">dependencies</text>
<g id="clust1" class="cluster">
<title>cluster_OopModelModule</title>
<polygon fill="none" stroke="black" stroke-dasharray="1,5" points="8,-32.8 8,-157.8 1214,-157.8 1214,-32.8 8,-32.8"/>
</g>
<g id="clust2" class="cluster">
<title>cluster_OopModelModule_declarations</title>
<polygon fill="none" stroke="black" points="206,-40.8 206,-92.8 1206,-92.8 1206,-40.8 206,-40.8"/>
</g>
<g id="clust11" class="cluster">
<title>cluster_OopModelModule_imports</title>
<polygon fill="none" stroke="black" points="16,-40.8 16,-92.8 198,-92.8 198,-40.8 16,-40.8"/>
</g>
<!-- ChengDirective -->
<g id="node1" class="node">
<title>ChengDirective</title>
<polygon fill="#ffffb3" stroke="black" points="1198.14,-84.8 1093.86,-84.8 1093.86,-48.8 1198.14,-48.8 1198.14,-84.8"/>
<text text-anchor="middle" x="1146" y="-62.6" font-family="Times,serif" font-size="14.00">ChengDirective</text>
</g>
<!-- OopModelModule -->
<g id="node9" class="node">
<title>OopModelModule</title>
<polygon fill="#8dd3c7" stroke="black" points="688.21,-149.8 685.21,-153.8 664.21,-153.8 661.21,-149.8 567.79,-149.8 567.79,-113.8 688.21,-113.8 688.21,-149.8"/>
<text text-anchor="middle" x="628" y="-127.6" font-family="Times,serif" font-size="14.00">OopModelModule</text>
</g>
<!-- ChengDirective&#45;&gt;OopModelModule -->
<g id="edge1" class="edge">
<title>ChengDirective&#45;&gt;OopModelModule</title>
<path fill="none" stroke="black" d="M1146,-84.81C1146,-107.29 1146,-142.8 1146,-142.8 1146,-142.8 698.18,-142.8 698.18,-142.8"/>
<polygon fill="black" stroke="black" points="698.18,-139.3 688.18,-142.8 698.18,-146.3 698.18,-139.3"/>
</g>
<!-- CustomDirective -->
<g id="node2" class="node">
<title>CustomDirective</title>
<polygon fill="#ffffb3" stroke="black" points="1075.65,-84.8 964.35,-84.8 964.35,-48.8 1075.65,-48.8 1075.65,-84.8"/>
<text text-anchor="middle" x="1020" y="-62.6" font-family="Times,serif" font-size="14.00">CustomDirective</text>
</g>
<!-- CustomDirective&#45;&gt;OopModelModule -->
<g id="edge2" class="edge">
<title>CustomDirective&#45;&gt;OopModelModule</title>
<path fill="none" stroke="black" d="M1020,-84.93C1020,-105.37 1020,-135.8 1020,-135.8 1020,-135.8 698.39,-135.8 698.39,-135.8"/>
<polygon fill="black" stroke="black" points="698.39,-132.3 688.39,-135.8 698.39,-139.3 698.39,-132.3"/>
</g>
<!-- Demo1Component -->
<g id="node3" class="node">
<title>Demo1Component</title>
<polygon fill="#ffffb3" stroke="black" points="946.05,-84.8 823.95,-84.8 823.95,-48.8 946.05,-48.8 946.05,-84.8"/>
<text text-anchor="middle" x="885" y="-62.6" font-family="Times,serif" font-size="14.00">Demo1Component</text>
</g>
<!-- Demo1Component&#45;&gt;OopModelModule -->
<g id="edge3" class="edge">
<title>Demo1Component&#45;&gt;OopModelModule</title>
<path fill="none" stroke="black" d="M885,-85.07C885,-103.36 885,-128.8 885,-128.8 885,-128.8 698.26,-128.8 698.26,-128.8"/>
<polygon fill="black" stroke="black" points="698.26,-125.3 688.26,-128.8 698.26,-132.3 698.26,-125.3"/>
</g>
<!-- FrameDirective -->
<g id="node4" class="node">
<title>FrameDirective</title>
<polygon fill="#ffffb3" stroke="black" points="805.85,-84.8 702.15,-84.8 702.15,-48.8 805.85,-48.8 805.85,-84.8"/>
<text text-anchor="middle" x="754" y="-62.6" font-family="Times,serif" font-size="14.00">FrameDirective</text>
</g>
<!-- FrameDirective&#45;&gt;OopModelModule -->
<g id="edge4" class="edge">
<title>FrameDirective&#45;&gt;OopModelModule</title>
<path fill="none" stroke="black" d="M754,-84.81C754,-100.85 754,-121.8 754,-121.8 754,-121.8 698.42,-121.8 698.42,-121.8"/>
<polygon fill="black" stroke="black" points="698.42,-118.3 688.42,-121.8 698.42,-125.3 698.42,-118.3"/>
</g>
<!-- HelloComponent -->
<g id="node5" class="node">
<title>HelloComponent</title>
<polygon fill="#ffffb3" stroke="black" points="684.44,-84.8 571.56,-84.8 571.56,-48.8 684.44,-48.8 684.44,-84.8"/>
<text text-anchor="middle" x="628" y="-62.6" font-family="Times,serif" font-size="14.00">HelloComponent</text>
</g>
<!-- HelloComponent&#45;&gt;OopModelModule -->
<g id="edge5" class="edge">
<title>HelloComponent&#45;&gt;OopModelModule</title>
<path fill="none" stroke="black" d="M628,-84.91C628,-84.91 628,-103.79 628,-103.79"/>
<polygon fill="black" stroke="black" points="624.5,-103.79 628,-113.79 631.5,-103.79 624.5,-103.79"/>
</g>
<!-- IndexComponent -->
<g id="node6" class="node">
<title>IndexComponent</title>
<polygon fill="#ffffb3" stroke="black" points="553.71,-84.8 440.29,-84.8 440.29,-48.8 553.71,-48.8 553.71,-84.8"/>
<text text-anchor="middle" x="497" y="-62.6" font-family="Times,serif" font-size="14.00">IndexComponent</text>
</g>
<!-- IndexComponent&#45;&gt;OopModelModule -->
<g id="edge6" class="edge">
<title>IndexComponent&#45;&gt;OopModelModule</title>
<path fill="none" stroke="black" d="M497,-84.81C497,-100.85 497,-121.8 497,-121.8 497,-121.8 557.87,-121.8 557.87,-121.8"/>
<polygon fill="black" stroke="black" points="557.87,-125.3 567.87,-121.8 557.87,-118.3 557.87,-125.3"/>
</g>
<!-- TestComponent -->
<g id="node7" class="node">
<title>TestComponent</title>
<polygon fill="#ffffb3" stroke="black" points="422.94,-84.8 317.06,-84.8 317.06,-48.8 422.94,-48.8 422.94,-84.8"/>
<text text-anchor="middle" x="370" y="-62.6" font-family="Times,serif" font-size="14.00">TestComponent</text>
</g>
<!-- TestComponent&#45;&gt;OopModelModule -->
<g id="edge7" class="edge">
<title>TestComponent&#45;&gt;OopModelModule</title>
<path fill="none" stroke="black" d="M370,-85.07C370,-103.36 370,-128.8 370,-128.8 370,-128.8 557.84,-128.8 557.84,-128.8"/>
<polygon fill="black" stroke="black" points="557.84,-132.3 567.84,-128.8 557.84,-125.3 557.84,-132.3"/>
</g>
<!-- XuDirective -->
<g id="node8" class="node">
<title>XuDirective</title>
<polygon fill="#ffffb3" stroke="black" points="299.69,-84.8 214.31,-84.8 214.31,-48.8 299.69,-48.8 299.69,-84.8"/>
<text text-anchor="middle" x="257" y="-62.6" font-family="Times,serif" font-size="14.00">XuDirective</text>
</g>
<!-- XuDirective&#45;&gt;OopModelModule -->
<g id="edge8" class="edge">
<title>XuDirective&#45;&gt;OopModelModule</title>
<path fill="none" stroke="black" d="M257,-84.93C257,-105.37 257,-135.8 257,-135.8 257,-135.8 557.57,-135.8 557.57,-135.8"/>
<polygon fill="black" stroke="black" points="557.57,-139.3 567.57,-135.8 557.57,-132.3 557.57,-139.3"/>
</g>
<!-- OopModelRoutingModule -->
<g id="node10" class="node">
<title>OopModelRoutingModule</title>
<polygon fill="#8dd3c7" stroke="black" points="189.83,-84.8 186.83,-88.8 165.83,-88.8 162.83,-84.8 24.17,-84.8 24.17,-48.8 189.83,-48.8 189.83,-84.8"/>
<text text-anchor="middle" x="107" y="-62.6" font-family="Times,serif" font-size="14.00">OopModelRoutingModule</text>
</g>
<!-- OopModelRoutingModule&#45;&gt;OopModelModule -->
<g id="edge9" class="edge">
<title>OopModelRoutingModule&#45;&gt;OopModelModule</title>
<path fill="none" stroke="black" d="M107,-84.81C107,-107.29 107,-142.8 107,-142.8 107,-142.8 557.73,-142.8 557.73,-142.8"/>
<polygon fill="black" stroke="black" points="557.73,-146.3 567.73,-142.8 557.73,-139.3 557.73,-146.3"/>
</g>
</g>
</svg>
