<?xml version="1.0" encoding="UTF-8" standalone="no"?>
<!DOCTYPE svg PUBLIC "-//W3C//DTD SVG 1.1//EN"
 "http://www.w3.org/Graphics/SVG/1.1/DTD/svg11.dtd">
<!-- Generated by graphviz version 3.0.0 (20220226.1711)
 -->
<!-- Title: dependencies Pages: 1 -->
<svg width="2573pt" height="174pt"
 viewBox="0.00 0.00 2573.00 173.80" xmlns="http://www.w3.org/2000/svg" xmlns:xlink="http://www.w3.org/1999/xlink">
<g id="graph0" class="graph" transform="scale(1 1) rotate(0) translate(4 169.8)">
<title>dependencies</title>
<polygon fill="white" stroke="transparent" points="-4,4 -4,-169.8 2569,-169.8 2569,4 -4,4"/>
<text text-anchor="middle" x="1282.5" y="-8.2" font-family="sans-serif" font-size="14.00">dependencies</text>
<g id="clust1" class="cluster">
<title>cluster_OopsModule</title>
<polygon fill="none" stroke="black" stroke-dasharray="1,5" points="8,-32.8 8,-157.8 2557,-157.8 2557,-32.8 8,-32.8"/>
</g>
<g id="clust19" class="cluster">
<title>cluster_OopsModule_imports</title>
<polygon fill="none" stroke="black" points="2399,-40.8 2399,-92.8 2549,-92.8 2549,-40.8 2399,-40.8"/>
</g>
<g id="clust2" class="cluster">
<title>cluster_OopsModule_declarations</title>
<polygon fill="none" stroke="black" points="16,-40.8 16,-92.8 2391,-92.8 2391,-40.8 16,-40.8"/>
</g>
<!-- AccomplishComponent -->
<g id="node1" class="node">
<title>AccomplishComponent</title>
<polygon fill="#ffffb3" stroke="black" points="2383.49,-84.8 2234.51,-84.8 2234.51,-48.8 2383.49,-48.8 2383.49,-84.8"/>
<text text-anchor="middle" x="2309" y="-62.6" font-family="Times,serif" font-size="14.00">AccomplishComponent</text>
</g>
<!-- OopsModule -->
<g id="node17" class="node">
<title>OopsModule</title>
<polygon fill="#8dd3c7" stroke="black" points="1277.61,-149.8 1274.61,-153.8 1253.61,-153.8 1250.61,-149.8 1188.39,-149.8 1188.39,-113.8 1277.61,-113.8 1277.61,-149.8"/>
<text text-anchor="middle" x="1233" y="-127.6" font-family="Times,serif" font-size="14.00">OopsModule</text>
</g>
<!-- AccomplishComponent&#45;&gt;OopsModule -->
<g id="edge1" class="edge">
<title>AccomplishComponent&#45;&gt;OopsModule</title>
<path fill="none" stroke="black" d="M2309,-84.96C2309,-107.15 2309,-141.8 2309,-141.8 2309,-141.8 1287.86,-141.8 1287.86,-141.8"/>
<polygon fill="black" stroke="black" points="1287.86,-138.3 1277.86,-141.8 1287.86,-145.3 1287.86,-138.3"/>
</g>
<!-- AreaComponent -->
<g id="node2" class="node">
<title>AreaComponent</title>
<polygon fill="#ffffb3" stroke="black" points="2216.03,-84.8 2107.97,-84.8 2107.97,-48.8 2216.03,-48.8 2216.03,-84.8"/>
<text text-anchor="middle" x="2162" y="-62.6" font-family="Times,serif" font-size="14.00">AreaComponent</text>
</g>
<!-- AreaComponent&#45;&gt;OopsModule -->
<g id="edge2" class="edge">
<title>AreaComponent&#45;&gt;OopsModule</title>
<path fill="none" stroke="black" d="M2162,-85.08C2162,-106.12 2162,-137.8 2162,-137.8 2162,-137.8 1287.81,-137.8 1287.81,-137.8"/>
<polygon fill="black" stroke="black" points="1287.81,-134.3 1277.81,-137.8 1287.81,-141.3 1287.81,-134.3"/>
</g>
<!-- ButtonComponent -->
<g id="node3" class="node">
<title>ButtonComponent</title>
<polygon fill="#ffffb3" stroke="black" points="2089.95,-84.8 1970.05,-84.8 1970.05,-48.8 2089.95,-48.8 2089.95,-84.8"/>
<text text-anchor="middle" x="2030" y="-62.6" font-family="Times,serif" font-size="14.00">ButtonComponent</text>
</g>
<!-- ButtonComponent&#45;&gt;OopsModule -->
<g id="edge3" class="edge">
<title>ButtonComponent&#45;&gt;OopsModule</title>
<path fill="none" stroke="black" d="M2030,-85.11C2030,-104.95 2030,-133.8 2030,-133.8 2030,-133.8 1287.56,-133.8 1287.56,-133.8"/>
<polygon fill="black" stroke="black" points="1287.56,-130.3 1277.56,-133.8 1287.56,-137.3 1287.56,-130.3"/>
</g>
<!-- ButtonSettingComponent -->
<g id="node4" class="node">
<title>ButtonSettingComponent</title>
<polygon fill="#ffffb3" stroke="black" points="1952.62,-84.8 1793.38,-84.8 1793.38,-48.8 1952.62,-48.8 1952.62,-84.8"/>
<text text-anchor="middle" x="1873" y="-62.6" font-family="Times,serif" font-size="14.00">ButtonSettingComponent</text>
</g>
<!-- ButtonSettingComponent&#45;&gt;OopsModule -->
<g id="edge4" class="edge">
<title>ButtonSettingComponent&#45;&gt;OopsModule</title>
<path fill="none" stroke="black" d="M1873,-85.02C1873,-103.63 1873,-129.8 1873,-129.8 1873,-129.8 1287.75,-129.8 1287.75,-129.8"/>
<polygon fill="black" stroke="black" points="1287.75,-126.3 1277.75,-129.8 1287.75,-133.3 1287.75,-126.3"/>
</g>
<!-- CollapseComponent -->
<g id="node5" class="node">
<title>CollapseComponent</title>
<polygon fill="#ffffb3" stroke="black" points="1775.32,-84.8 1644.68,-84.8 1644.68,-48.8 1775.32,-48.8 1775.32,-84.8"/>
<text text-anchor="middle" x="1710" y="-62.6" font-family="Times,serif" font-size="14.00">CollapseComponent</text>
</g>
<!-- CollapseComponent&#45;&gt;OopsModule -->
<g id="edge5" class="edge">
<title>CollapseComponent&#45;&gt;OopsModule</title>
<path fill="none" stroke="black" d="M1710,-84.82C1710,-102.17 1710,-125.8 1710,-125.8 1710,-125.8 1287.88,-125.8 1287.88,-125.8"/>
<polygon fill="black" stroke="black" points="1287.88,-122.3 1277.88,-125.8 1287.87,-129.3 1287.88,-122.3"/>
</g>
<!-- CollapseSettingComponent -->
<g id="node6" class="node">
<title>CollapseSettingComponent</title>
<polygon fill="#ffffb3" stroke="black" points="1626.99,-84.8 1457.01,-84.8 1457.01,-48.8 1626.99,-48.8 1626.99,-84.8"/>
<text text-anchor="middle" x="1542" y="-62.6" font-family="Times,serif" font-size="14.00">CollapseSettingComponent</text>
</g>
<!-- CollapseSettingComponent&#45;&gt;OopsModule -->
<g id="edge6" class="edge">
<title>CollapseSettingComponent&#45;&gt;OopsModule</title>
<path fill="none" stroke="black" d="M1542,-84.81C1542,-100.85 1542,-121.8 1542,-121.8 1542,-121.8 1287.6,-121.8 1287.6,-121.8"/>
<polygon fill="black" stroke="black" points="1287.6,-118.3 1277.6,-121.8 1287.6,-125.3 1287.6,-118.3"/>
</g>
<!-- FromComponent -->
<g id="node7" class="node">
<title>FromComponent</title>
<polygon fill="#ffffb3" stroke="black" points="1438.67,-84.8 1327.33,-84.8 1327.33,-48.8 1438.67,-48.8 1438.67,-84.8"/>
<text text-anchor="middle" x="1383" y="-62.6" font-family="Times,serif" font-size="14.00">FromComponent</text>
</g>
<!-- FromComponent&#45;&gt;OopsModule -->
<g id="edge7" class="edge">
<title>FromComponent&#45;&gt;OopsModule</title>
<path fill="none" stroke="black" d="M1383,-84.92C1383,-99.58 1383,-117.8 1383,-117.8 1383,-117.8 1287.6,-117.8 1287.6,-117.8"/>
<polygon fill="black" stroke="black" points="1287.6,-114.3 1277.6,-117.8 1287.6,-121.3 1287.6,-114.3"/>
</g>
<!-- FromSettingComponent -->
<g id="node8" class="node">
<title>FromSettingComponent</title>
<polygon fill="#ffffb3" stroke="black" points="1308.84,-84.8 1157.16,-84.8 1157.16,-48.8 1308.84,-48.8 1308.84,-84.8"/>
<text text-anchor="middle" x="1233" y="-62.6" font-family="Times,serif" font-size="14.00">FromSettingComponent</text>
</g>
<!-- FromSettingComponent&#45;&gt;OopsModule -->
<g id="edge8" class="edge">
<title>FromSettingComponent&#45;&gt;OopsModule</title>
<path fill="none" stroke="black" d="M1233,-84.91C1233,-84.91 1233,-103.79 1233,-103.79"/>
<polygon fill="black" stroke="black" points="1229.5,-103.79 1233,-113.79 1236.5,-103.79 1229.5,-103.79"/>
</g>
<!-- HoverDirective -->
<g id="node9" class="node">
<title>HoverDirective</title>
<polygon fill="#ffffb3" stroke="black" points="1139.57,-84.8 1036.43,-84.8 1036.43,-48.8 1139.57,-48.8 1139.57,-84.8"/>
<text text-anchor="middle" x="1088" y="-62.6" font-family="Times,serif" font-size="14.00">HoverDirective</text>
</g>
<!-- HoverDirective&#45;&gt;OopsModule -->
<g id="edge9" class="edge">
<title>HoverDirective&#45;&gt;OopsModule</title>
<path fill="none" stroke="black" d="M1088,-84.92C1088,-99.58 1088,-117.8 1088,-117.8 1088,-117.8 1178.31,-117.8 1178.31,-117.8"/>
<polygon fill="black" stroke="black" points="1178.31,-121.3 1188.31,-117.8 1178.31,-114.3 1178.31,-121.3"/>
</g>
<!-- HoverProDirective -->
<g id="node10" class="node">
<title>HoverProDirective</title>
<polygon fill="#ffffb3" stroke="black" points="1018.02,-84.8 895.98,-84.8 895.98,-48.8 1018.02,-48.8 1018.02,-84.8"/>
<text text-anchor="middle" x="957" y="-62.6" font-family="Times,serif" font-size="14.00">HoverProDirective</text>
</g>
<!-- HoverProDirective&#45;&gt;OopsModule -->
<g id="edge10" class="edge">
<title>HoverProDirective&#45;&gt;OopsModule</title>
<path fill="none" stroke="black" d="M957,-84.81C957,-100.85 957,-121.8 957,-121.8 957,-121.8 1178.35,-121.8 1178.35,-121.8"/>
<polygon fill="black" stroke="black" points="1178.35,-125.3 1188.35,-121.8 1178.35,-118.3 1178.35,-125.3"/>
</g>
<!-- LayoutComponent -->
<g id="node11" class="node">
<title>LayoutComponent</title>
<polygon fill="#ffffb3" stroke="black" points="877.49,-84.8 756.51,-84.8 756.51,-48.8 877.49,-48.8 877.49,-84.8"/>
<text text-anchor="middle" x="817" y="-62.6" font-family="Times,serif" font-size="14.00">LayoutComponent</text>
</g>
<!-- LayoutComponent&#45;&gt;OopsModule -->
<g id="edge11" class="edge">
<title>LayoutComponent&#45;&gt;OopsModule</title>
<path fill="none" stroke="black" d="M817,-84.82C817,-102.17 817,-125.8 817,-125.8 817,-125.8 1178.09,-125.8 1178.09,-125.8"/>
<polygon fill="black" stroke="black" points="1178.09,-129.3 1188.09,-125.8 1178.09,-122.3 1178.09,-129.3"/>
</g>
<!-- TableComponent -->
<g id="node12" class="node">
<title>TableComponent</title>
<polygon fill="#ffffb3" stroke="black" points="738.7,-84.8 625.3,-84.8 625.3,-48.8 738.7,-48.8 738.7,-84.8"/>
<text text-anchor="middle" x="682" y="-62.6" font-family="Times,serif" font-size="14.00">TableComponent</text>
</g>
<!-- TableComponent&#45;&gt;OopsModule -->
<g id="edge12" class="edge">
<title>TableComponent&#45;&gt;OopsModule</title>
<path fill="none" stroke="black" d="M682,-85.02C682,-103.63 682,-129.8 682,-129.8 682,-129.8 1178.38,-129.8 1178.38,-129.8"/>
<polygon fill="black" stroke="black" points="1178.38,-133.3 1188.38,-129.8 1178.38,-126.3 1178.38,-133.3"/>
</g>
<!-- TableSettingComponent -->
<g id="node13" class="node">
<title>TableSettingComponent</title>
<polygon fill="#ffffb3" stroke="black" points="607.37,-84.8 454.63,-84.8 454.63,-48.8 607.37,-48.8 607.37,-84.8"/>
<text text-anchor="middle" x="531" y="-62.6" font-family="Times,serif" font-size="14.00">TableSettingComponent</text>
</g>
<!-- TableSettingComponent&#45;&gt;OopsModule -->
<g id="edge13" class="edge">
<title>TableSettingComponent&#45;&gt;OopsModule</title>
<path fill="none" stroke="black" d="M531,-85.11C531,-104.95 531,-133.8 531,-133.8 531,-133.8 1178.29,-133.8 1178.29,-133.8"/>
<polygon fill="black" stroke="black" points="1178.29,-137.3 1188.29,-133.8 1178.29,-130.3 1178.29,-137.3"/>
</g>
<!-- TextComponent -->
<g id="node14" class="node">
<title>TextComponent</title>
<polygon fill="#ffffb3" stroke="black" points="436.49,-84.8 329.51,-84.8 329.51,-48.8 436.49,-48.8 436.49,-84.8"/>
<text text-anchor="middle" x="383" y="-62.6" font-family="Times,serif" font-size="14.00">TextComponent</text>
</g>
<!-- TextComponent&#45;&gt;OopsModule -->
<g id="edge14" class="edge">
<title>TextComponent&#45;&gt;OopsModule</title>
<path fill="none" stroke="black" d="M383,-85.08C383,-106.12 383,-137.8 383,-137.8 383,-137.8 1178.2,-137.8 1178.2,-137.8"/>
<polygon fill="black" stroke="black" points="1178.2,-141.3 1188.2,-137.8 1178.2,-134.3 1178.2,-141.3"/>
</g>
<!-- TextSettingComponent -->
<g id="node15" class="node">
<title>TextSettingComponent</title>
<polygon fill="#ffffb3" stroke="black" points="311.16,-84.8 164.84,-84.8 164.84,-48.8 311.16,-48.8 311.16,-84.8"/>
<text text-anchor="middle" x="238" y="-62.6" font-family="Times,serif" font-size="14.00">TextSettingComponent</text>
</g>
<!-- TextSettingComponent&#45;&gt;OopsModule -->
<g id="edge15" class="edge">
<title>TextSettingComponent&#45;&gt;OopsModule</title>
<path fill="none" stroke="black" d="M238,-84.96C238,-107.15 238,-141.8 238,-141.8 238,-141.8 1178.31,-141.8 1178.31,-141.8"/>
<polygon fill="black" stroke="black" points="1178.31,-145.3 1188.31,-141.8 1178.31,-138.3 1178.31,-145.3"/>
</g>
<!-- WidgetComponent -->
<g id="node16" class="node">
<title>WidgetComponent</title>
<polygon fill="#ffffb3" stroke="black" points="146.04,-84.8 23.96,-84.8 23.96,-48.8 146.04,-48.8 146.04,-84.8"/>
<text text-anchor="middle" x="85" y="-62.6" font-family="Times,serif" font-size="14.00">WidgetComponent</text>
</g>
<!-- WidgetComponent&#45;&gt;OopsModule -->
<g id="edge16" class="edge">
<title>WidgetComponent&#45;&gt;OopsModule</title>
<path fill="none" stroke="black" d="M85,-85.12C85,-108.46 85,-145.8 85,-145.8 85,-145.8 1178.35,-145.8 1178.35,-145.8"/>
<polygon fill="black" stroke="black" points="1178.35,-149.3 1188.35,-145.8 1178.35,-142.3 1178.35,-149.3"/>
</g>
<!-- OopsRoutingModule -->
<g id="node18" class="node">
<title>OopsRoutingModule</title>
<polygon fill="#8dd3c7" stroke="black" points="2541.23,-84.8 2538.23,-88.8 2517.23,-88.8 2514.23,-84.8 2406.77,-84.8 2406.77,-48.8 2541.23,-48.8 2541.23,-84.8"/>
<text text-anchor="middle" x="2474" y="-62.6" font-family="Times,serif" font-size="14.00">OopsRoutingModule</text>
</g>
<!-- OopsRoutingModule&#45;&gt;OopsModule -->
<g id="edge17" class="edge">
<title>OopsRoutingModule&#45;&gt;OopsModule</title>
<path fill="none" stroke="black" d="M2474,-85.12C2474,-108.46 2474,-145.8 2474,-145.8 2474,-145.8 1287.9,-145.8 1287.9,-145.8"/>
<polygon fill="black" stroke="black" points="1287.9,-142.3 1277.9,-145.8 1287.9,-149.3 1287.9,-142.3"/>
</g>
</g>
</svg>
