<?xml version="1.0" encoding="UTF-8" standalone="no"?>
<!DOCTYPE svg PUBLIC "-//W3C//DTD SVG 1.1//EN"
 "http://www.w3.org/Graphics/SVG/1.1/DTD/svg11.dtd">
<!-- Generated by graphviz version 3.0.0 (20220226.1711)
 -->
<!-- Title: dependencies Pages: 1 -->
<svg width="1863pt" height="174pt"
 viewBox="0.00 0.00 1863.00 173.80" xmlns="http://www.w3.org/2000/svg" xmlns:xlink="http://www.w3.org/1999/xlink">
<g id="graph0" class="graph" transform="scale(1 1) rotate(0) translate(4 169.8)">
<title>dependencies</title>
<polygon fill="white" stroke="transparent" points="-4,4 -4,-169.8 1859,-169.8 1859,4 -4,4"/>
<text text-anchor="middle" x="927.5" y="-8.2" font-family="sans-serif" font-size="14.00">dependencies</text>
<g id="clust1" class="cluster">
<title>cluster_OopModule</title>
<polygon fill="none" stroke="black" stroke-dasharray="1,5" points="8,-32.8 8,-157.8 1847,-157.8 1847,-32.8 8,-32.8"/>
</g>
<g id="clust13" class="cluster">
<title>cluster_OopModule_imports</title>
<polygon fill="none" stroke="black" points="1695,-40.8 1695,-92.8 1839,-92.8 1839,-40.8 1695,-40.8"/>
</g>
<g id="clust2" class="cluster">
<title>cluster_OopModule_declarations</title>
<polygon fill="none" stroke="black" points="16,-40.8 16,-92.8 1687,-92.8 1687,-40.8 16,-40.8"/>
</g>
<!-- CardComponent -->
<g id="node1" class="node">
<title>CardComponent</title>
<polygon fill="#ffffb3" stroke="black" points="1679.05,-84.8 1570.95,-84.8 1570.95,-48.8 1679.05,-48.8 1679.05,-84.8"/>
<text text-anchor="middle" x="1625" y="-62.6" font-family="Times,serif" font-size="14.00">CardComponent</text>
</g>
<!-- OopModule -->
<g id="node11" class="node">
<title>OopModule</title>
<polygon fill="#8dd3c7" stroke="black" points="998.66,-149.8 995.66,-153.8 974.66,-153.8 971.66,-149.8 915.34,-149.8 915.34,-113.8 998.66,-113.8 998.66,-149.8"/>
<text text-anchor="middle" x="957" y="-127.6" font-family="Times,serif" font-size="14.00">OopModule</text>
</g>
<!-- CardComponent&#45;&gt;OopModule -->
<g id="edge1" class="edge">
<title>CardComponent&#45;&gt;OopModule</title>
<path fill="none" stroke="black" d="M1625,-85.08C1625,-106.12 1625,-137.8 1625,-137.8 1625,-137.8 1008.79,-137.8 1008.79,-137.8"/>
<polygon fill="black" stroke="black" points="1008.79,-134.3 998.79,-137.8 1008.79,-141.3 1008.79,-134.3"/>
</g>
<!-- ChipsComponent -->
<g id="node2" class="node">
<title>ChipsComponent</title>
<polygon fill="#ffffb3" stroke="black" points="1553.01,-84.8 1438.99,-84.8 1438.99,-48.8 1553.01,-48.8 1553.01,-84.8"/>
<text text-anchor="middle" x="1496" y="-62.6" font-family="Times,serif" font-size="14.00">ChipsComponent</text>
</g>
<!-- ChipsComponent&#45;&gt;OopModule -->
<g id="edge2" class="edge">
<title>ChipsComponent&#45;&gt;OopModule</title>
<path fill="none" stroke="black" d="M1496,-84.91C1496,-104.14 1496,-131.8 1496,-131.8 1496,-131.8 1008.85,-131.8 1008.85,-131.8"/>
<polygon fill="black" stroke="black" points="1008.85,-128.3 998.85,-131.8 1008.85,-135.3 1008.85,-128.3"/>
</g>
<!-- DemoComponent -->
<g id="node3" class="node">
<title>DemoComponent</title>
<polygon fill="#ffffb3" stroke="black" points="1420.55,-84.8 1305.45,-84.8 1305.45,-48.8 1420.55,-48.8 1420.55,-84.8"/>
<text text-anchor="middle" x="1363" y="-62.6" font-family="Times,serif" font-size="14.00">DemoComponent</text>
</g>
<!-- DemoComponent&#45;&gt;OopModule -->
<g id="edge3" class="edge">
<title>DemoComponent&#45;&gt;OopModule</title>
<path fill="none" stroke="black" d="M1363,-84.82C1363,-102.17 1363,-125.8 1363,-125.8 1363,-125.8 1008.92,-125.8 1008.92,-125.8"/>
<polygon fill="black" stroke="black" points="1008.92,-122.3 998.92,-125.8 1008.92,-129.3 1008.92,-122.3"/>
</g>
<!-- DragDynamicComponentComponent -->
<g id="node4" class="node">
<title>DragDynamicComponentComponent</title>
<polygon fill="#ffffb3" stroke="black" points="1286.97,-84.8 1061.03,-84.8 1061.03,-48.8 1286.97,-48.8 1286.97,-84.8"/>
<text text-anchor="middle" x="1174" y="-62.6" font-family="Times,serif" font-size="14.00">DragDynamicComponentComponent</text>
</g>
<!-- DragDynamicComponentComponent&#45;&gt;OopModule -->
<g id="edge4" class="edge">
<title>DragDynamicComponentComponent&#45;&gt;OopModule</title>
<path fill="none" stroke="black" d="M1174,-85.04C1174,-100.37 1174,-119.8 1174,-119.8 1174,-119.8 1008.84,-119.8 1008.84,-119.8"/>
<polygon fill="black" stroke="black" points="1008.84,-116.3 998.84,-119.8 1008.84,-123.3 1008.84,-116.3"/>
</g>
<!-- LibComponentsComponent -->
<g id="node5" class="node">
<title>LibComponentsComponent</title>
<polygon fill="#ffffb3" stroke="black" points="1042.55,-84.8 871.45,-84.8 871.45,-48.8 1042.55,-48.8 1042.55,-84.8"/>
<text text-anchor="middle" x="957" y="-62.6" font-family="Times,serif" font-size="14.00">LibComponentsComponent</text>
</g>
<!-- LibComponentsComponent&#45;&gt;OopModule -->
<g id="edge5" class="edge">
<title>LibComponentsComponent&#45;&gt;OopModule</title>
<path fill="none" stroke="black" d="M957,-84.91C957,-84.91 957,-103.79 957,-103.79"/>
<polygon fill="black" stroke="black" points="953.5,-103.79 957,-113.79 960.5,-103.79 953.5,-103.79"/>
</g>
<!-- OopComponent -->
<g id="node6" class="node">
<title>OopComponent</title>
<polygon fill="#ffffb3" stroke="black" points="853.94,-84.8 748.06,-84.8 748.06,-48.8 853.94,-48.8 853.94,-84.8"/>
<text text-anchor="middle" x="801" y="-62.6" font-family="Times,serif" font-size="14.00">OopComponent</text>
</g>
<!-- OopComponent&#45;&gt;OopModule -->
<g id="edge6" class="edge">
<title>OopComponent&#45;&gt;OopModule</title>
<path fill="none" stroke="black" d="M801,-85.04C801,-100.37 801,-119.8 801,-119.8 801,-119.8 905.19,-119.8 905.19,-119.8"/>
<polygon fill="black" stroke="black" points="905.19,-123.3 915.19,-119.8 905.19,-116.3 905.19,-123.3"/>
</g>
<!-- RulerComponent -->
<g id="node7" class="node">
<title>RulerComponent</title>
<polygon fill="#ffffb3" stroke="black" points="730.44,-84.8 617.56,-84.8 617.56,-48.8 730.44,-48.8 730.44,-84.8"/>
<text text-anchor="middle" x="674" y="-62.6" font-family="Times,serif" font-size="14.00">RulerComponent</text>
</g>
<!-- RulerComponent&#45;&gt;OopModule -->
<g id="edge7" class="edge">
<title>RulerComponent&#45;&gt;OopModule</title>
<path fill="none" stroke="black" d="M674,-84.82C674,-102.17 674,-125.8 674,-125.8 674,-125.8 905.24,-125.8 905.24,-125.8"/>
<polygon fill="black" stroke="black" points="905.24,-129.3 915.24,-125.8 905.24,-122.3 905.24,-129.3"/>
</g>
<!-- SettingComponent -->
<g id="node8" class="node">
<title>SettingComponent</title>
<polygon fill="#ffffb3" stroke="black" points="599.5,-84.8 478.5,-84.8 478.5,-48.8 599.5,-48.8 599.5,-84.8"/>
<text text-anchor="middle" x="539" y="-62.6" font-family="Times,serif" font-size="14.00">SettingComponent</text>
</g>
<!-- SettingComponent&#45;&gt;OopModule -->
<g id="edge8" class="edge">
<title>SettingComponent&#45;&gt;OopModule</title>
<path fill="none" stroke="black" d="M539,-84.91C539,-104.14 539,-131.8 539,-131.8 539,-131.8 905.01,-131.8 905.01,-131.8"/>
<polygon fill="black" stroke="black" points="905.01,-135.3 915.01,-131.8 905.01,-128.3 905.01,-135.3"/>
</g>
<!-- UdlrDragBugComponent -->
<g id="node9" class="node">
<title>UdlrDragBugComponent</title>
<polygon fill="#ffffb3" stroke="black" points="460.32,-84.8 301.68,-84.8 301.68,-48.8 460.32,-48.8 460.32,-84.8"/>
<text text-anchor="middle" x="381" y="-62.6" font-family="Times,serif" font-size="14.00">UdlrDragBugComponent</text>
</g>
<!-- UdlrDragBugComponent&#45;&gt;OopModule -->
<g id="edge9" class="edge">
<title>UdlrDragBugComponent&#45;&gt;OopModule</title>
<path fill="none" stroke="black" d="M381,-85.08C381,-106.12 381,-137.8 381,-137.8 381,-137.8 905.11,-137.8 905.11,-137.8"/>
<polygon fill="black" stroke="black" points="905.11,-141.3 915.11,-137.8 905.11,-134.3 905.11,-141.3"/>
</g>
<!-- ViewChildDynamicComponentComponent -->
<g id="node10" class="node">
<title>ViewChildDynamicComponentComponent</title>
<polygon fill="#ffffb3" stroke="black" points="283.92,-84.8 24.08,-84.8 24.08,-48.8 283.92,-48.8 283.92,-84.8"/>
<text text-anchor="middle" x="154" y="-62.6" font-family="Times,serif" font-size="14.00">ViewChildDynamicComponentComponent</text>
</g>
<!-- ViewChildDynamicComponentComponent&#45;&gt;OopModule -->
<g id="edge10" class="edge">
<title>ViewChildDynamicComponentComponent&#45;&gt;OopModule</title>
<path fill="none" stroke="black" d="M154,-84.89C154,-107.93 154,-144.8 154,-144.8 154,-144.8 905.24,-144.8 905.24,-144.8"/>
<polygon fill="black" stroke="black" points="905.24,-148.3 915.24,-144.8 905.24,-141.3 905.24,-148.3"/>
</g>
<!-- OopRoutingModule -->
<g id="node12" class="node">
<title>OopRoutingModule</title>
<polygon fill="#8dd3c7" stroke="black" points="1831.28,-84.8 1828.28,-88.8 1807.28,-88.8 1804.28,-84.8 1702.72,-84.8 1702.72,-48.8 1831.28,-48.8 1831.28,-84.8"/>
<text text-anchor="middle" x="1767" y="-62.6" font-family="Times,serif" font-size="14.00">OopRoutingModule</text>
</g>
<!-- OopRoutingModule&#45;&gt;OopModule -->
<g id="edge11" class="edge">
<title>OopRoutingModule&#45;&gt;OopModule</title>
<path fill="none" stroke="black" d="M1767,-84.89C1767,-107.93 1767,-144.8 1767,-144.8 1767,-144.8 1008.84,-144.8 1008.84,-144.8"/>
<polygon fill="black" stroke="black" points="1008.84,-141.3 998.84,-144.8 1008.84,-148.3 1008.84,-141.3"/>
</g>
</g>
</svg>
